<svg width="137" height="32" viewBox="0 0 137 32" fill="none" xmlns="http://www.w3.org/2000/svg">
<g filter="url(#filter0_d_11_620)">
<path d="M32.0305 9.59065C31.9963 13.7698 34.4359 16.1018 36.2737 17.4884C38.1618 18.9109 38.796 19.8233 38.7885 21.0956C38.7745 23.0425 37.2824 23.9019 35.8863 23.9353C33.4504 23.9937 32.0341 22.917 30.9081 22.1026L30.0306 28.4602C31.1603 29.2662 33.2521 29.9692 35.4212 30C40.513 30 43.8442 26.1083 43.8623 20.0744C43.8822 12.4165 37.0213 11.9927 37.0682 8.56982C37.0844 7.53193 37.724 6.42437 39.1255 6.14277C39.8193 6.00051 41.7344 5.89164 43.9056 7.43976L44.7578 1.28865C43.5902 0.630354 42.0895 0 40.221 0C35.4285 0 32.0577 3.94469 32.0305 9.59065ZM52.9464 0.529831C52.0166 0.529831 51.2331 1.36957 50.8834 2.65822L43.6101 29.5482H48.6981L49.7106 25.2156H55.9281L56.5155 29.5482H61L57.0866 0.529831H52.9464ZM53.6582 8.36878L55.1266 19.2655H51.1052L53.6582 8.36878ZM25.8616 0.530193L21.8509 29.5478H26.6995L30.7082 0.529469L25.8616 0.530193ZM18.689 0.530193L13.6424 20.2809L11.601 3.48708C11.3615 1.61235 10.4155 0.529831 9.36508 0.529831H1.11555L1 1.37248C2.69359 1.9415 4.61781 2.85927 5.78359 3.84127C6.49703 4.44114 6.70047 4.96552 6.93484 6.39099L10.8013 29.5482H15.925L23.7803 0.529831L18.689 0.530193Z" fill="url(#paint0_linear_11_620)"/>
</g>
<g clip-path="url(#clip0_11_620)" filter="url(#filter1_d_11_620)">
<path d="M95.0899 29.8509V27.8653C95.0899 27.104 94.4896 26.6078 93.4604 26.6078C92.946 26.6078 92.3886 26.7401 92.0026 27.1704C91.7026 26.8063 91.2739 26.6078 90.6308 26.6078C90.2019 26.6078 89.7733 26.707 89.4302 27.071V26.6739H88.5298V29.8509H89.4302V28.0969C89.4302 27.5344 89.8161 27.2696 90.4165 27.2696C91.0165 27.2696 91.3169 27.5675 91.3169 28.0969V29.8509H92.2173V28.0969C92.2173 27.5344 92.6458 27.2696 93.2032 27.2696C93.8036 27.2696 94.1036 27.5675 94.1036 28.0969V29.8509H95.0899ZM108.424 26.6739H106.967V25.7142H106.066V26.6739H105.251V27.3026H106.066V28.7589C106.066 29.487 106.452 29.9171 107.481 29.9171C107.867 29.9171 108.295 29.8179 108.596 29.6856L108.338 29.0898C108.081 29.2221 107.781 29.2553 107.567 29.2553C107.138 29.2553 106.967 29.0568 106.967 28.7257V27.3026H108.424V26.6739ZM116.056 26.6076C115.542 26.6076 115.199 26.8063 114.984 27.071V26.6739H114.084V29.8509H114.984V28.0639C114.984 27.5344 115.284 27.2366 115.842 27.2366C116.013 27.2366 116.228 27.2697 116.399 27.3027L116.656 26.6409C116.485 26.6078 116.228 26.6078 116.056 26.6078M104.523 26.9388C104.094 26.7071 103.493 26.6079 102.85 26.6079C101.821 26.6079 101.135 27.005 101.135 27.6338C101.135 28.1634 101.65 28.4611 102.55 28.5605L102.979 28.5936C103.451 28.6597 103.708 28.759 103.708 28.9245C103.708 29.1561 103.365 29.3216 102.765 29.3216C102.164 29.3216 101.693 29.1561 101.392 28.9907L100.964 29.5202C101.435 29.7849 102.079 29.9173 102.722 29.9173C103.922 29.9173 104.608 29.4872 104.608 28.8914C104.608 28.3288 104.051 28.0309 103.193 27.9317L102.765 27.8985C102.379 27.8653 102.079 27.7993 102.079 27.6008C102.079 27.3691 102.379 27.2367 102.85 27.2367C103.365 27.2367 103.879 27.4021 104.137 27.5014L104.523 26.9388ZM128.447 26.6079C127.933 26.6079 127.59 26.8065 127.375 27.0712V26.6741H126.475V29.8511H127.375V28.064C127.375 27.5346 127.675 27.2367 128.233 27.2367C128.404 27.2367 128.619 27.2699 128.79 27.3029L129.048 26.6411C128.876 26.6079 128.619 26.6079 128.447 26.6079ZM116.957 28.2626C116.957 29.2223 117.814 29.9173 119.143 29.9173C119.743 29.9173 120.172 29.8181 120.601 29.5533L120.172 28.9907C119.829 29.1893 119.486 29.2885 119.1 29.2885C118.371 29.2885 117.857 28.8914 117.857 28.2626C117.857 27.667 118.371 27.2697 119.1 27.2367C119.486 27.2367 119.829 27.3359 120.172 27.5346L120.601 26.972C120.172 26.7071 119.743 26.6079 119.143 26.6079C117.814 26.6079 116.957 27.3029 116.957 28.2626ZM125.275 28.2626V26.6741H124.374V27.0712C124.074 26.7734 123.645 26.6079 123.088 26.6079C121.93 26.6079 121.03 27.3029 121.03 28.2626C121.03 29.2223 121.93 29.9173 123.088 29.9173C123.688 29.9173 124.117 29.7519 124.374 29.454V29.8511H125.275V28.2626ZM121.973 28.2626C121.973 27.7 122.445 27.2367 123.216 27.2367C123.945 27.2367 124.46 27.667 124.46 28.2626C124.46 28.8252 123.945 29.2885 123.216 29.2885C122.445 29.2553 121.973 28.8252 121.973 28.2626ZM111.211 26.6079C110.011 26.6079 109.153 27.2697 109.153 28.2626C109.153 29.2555 110.01 29.9173 111.254 29.9173C111.854 29.9173 112.455 29.7849 112.926 29.4872L112.497 28.9907C112.154 29.1893 111.726 29.3216 111.297 29.3216C110.74 29.3216 110.182 29.1231 110.053 28.5603H113.098V28.2958C113.141 27.2697 112.369 26.6079 111.211 26.6079ZM111.211 27.2035C111.768 27.2035 112.154 27.4684 112.24 27.9648H110.096C110.182 27.5346 110.568 27.2035 111.211 27.2035ZM133.549 28.2626V25.4165H132.649V27.0712C132.349 26.7734 131.92 26.6079 131.363 26.6079C130.205 26.6079 129.305 27.3029 129.305 28.2626C129.305 29.2223 130.205 29.9173 131.363 29.9173C131.963 29.9173 132.392 29.7519 132.649 29.454V29.8511H133.549V28.2626ZM130.248 28.2626C130.248 27.7 130.719 27.2367 131.491 27.2367C132.22 27.2367 132.735 27.667 132.735 28.2626C132.735 28.8252 132.22 29.2885 131.491 29.2885C130.719 29.2553 130.248 28.8252 130.248 28.2626ZM100.149 28.2626V26.6741H99.2485V27.0712C98.9483 26.7734 98.5196 26.6079 97.9622 26.6079C96.8046 26.6079 95.9042 27.3029 95.9042 28.2626C95.9042 29.2223 96.8046 29.9173 97.9622 29.9173C98.5626 29.9173 98.9913 29.7519 99.2485 29.454V29.8511H100.149V28.2626ZM96.8046 28.2626C96.8046 27.7 97.2763 27.2367 98.0479 27.2367C98.7769 27.2367 99.2915 27.667 99.2915 28.2626C99.2915 28.8252 98.7769 29.2885 98.0479 29.2885C97.2763 29.2553 96.8046 28.8252 96.8046 28.2626Z" fill="black"/>
<path d="M104.222 2.54822H117.728V21.2795H104.222V2.54822Z" fill="#FF5F00"/>
<path d="M105.08 11.9139C105.08 8.10814 107.395 4.73246 110.954 2.54819C108.338 0.959699 105.037 0 101.436 0C92.9029 0 86 5.32809 86 11.9139C86 18.4998 92.9029 23.8278 101.435 23.8278C105.037 23.8278 108.338 22.8681 110.954 21.2795C107.395 19.1284 105.08 15.7197 105.08 11.9139Z" fill="#EB001B"/>
<path d="M135.95 11.9139C135.95 18.4996 129.047 23.8278 120.515 23.8278C116.913 23.8278 113.612 22.8681 110.997 21.2795C114.598 19.0954 116.871 15.7197 116.871 11.9139C116.871 8.10814 114.555 4.73246 110.997 2.54819C113.612 0.959699 116.913 0 120.515 0C129.047 0 135.95 5.36126 135.95 11.9139Z" fill="#F79E1B"/>
</g>
<defs>
<filter id="filter0_d_11_620" x="0" y="0" width="62" height="32" filterUnits="userSpaceOnUse" color-interpolation-filters="sRGB">
<feFlood flood-opacity="0" result="BackgroundImageFix"/>
<feColorMatrix in="SourceAlpha" type="matrix" values="0 0 0 0 0 0 0 0 0 0 0 0 0 0 0 0 0 0 127 0" result="hardAlpha"/>
<feOffset dy="1"/>
<feGaussianBlur stdDeviation="0.5"/>
<feComposite in2="hardAlpha" operator="out"/>
<feColorMatrix type="matrix" values="0 0 0 0 0 0 0 0 0 0 0 0 0 0 0 0 0 0 0.25 0"/>
<feBlend mode="normal" in2="BackgroundImageFix" result="effect1_dropShadow_11_620"/>
<feBlend mode="normal" in="SourceGraphic" in2="effect1_dropShadow_11_620" result="shape"/>
</filter>
<filter id="filter1_d_11_620" x="85" y="0" width="52" height="32" filterUnits="userSpaceOnUse" color-interpolation-filters="sRGB">
<feFlood flood-opacity="0" result="BackgroundImageFix"/>
<feColorMatrix in="SourceAlpha" type="matrix" values="0 0 0 0 0 0 0 0 0 0 0 0 0 0 0 0 0 0 127 0" result="hardAlpha"/>
<feOffset dy="1"/>
<feGaussianBlur stdDeviation="0.5"/>
<feComposite in2="hardAlpha" operator="out"/>
<feColorMatrix type="matrix" values="0 0 0 0 0 0 0 0 0 0 0 0 0 0 0 0 0 0 0.25 0"/>
<feBlend mode="normal" in2="BackgroundImageFix" result="effect1_dropShadow_11_620"/>
<feBlend mode="normal" in="SourceGraphic" in2="effect1_dropShadow_11_620" result="shape"/>
</filter>
<linearGradient id="paint0_linear_11_620" x1="2759.44" y1="90.18" x2="2893.75" y2="-2987.45" gradientUnits="userSpaceOnUse">
<stop stop-color="#222357"/>
<stop offset="1" stop-color="#254AA5"/>
</linearGradient>
<clipPath id="clip0_11_620">
<rect width="50" height="30" fill="white" transform="translate(86)"/>
</clipPath>
</defs>
</svg>
