<svg width="75" height="75" viewBox="0 0 75 75" fill="none" xmlns="http://www.w3.org/2000/svg">
<circle cx="37.5" cy="37.5" r="37.5" fill="white"/>
<circle cx="37.5" cy="37.5" r="37" stroke="black" stroke-opacity="0.4"/>
<path d="M27.5 51.5C26.6716 52.3284 25.3284 52.3284 24.5 51.5C23.6716 50.6716 23.6716 49.3284 24.5 48.5L30.0502 42.9498C32.7839 40.2161 32.7839 35.7839 30.0503 33.0503L24.5 27.5C23.6716 26.6716 23.6716 25.3284 24.5 24.5C25.3284 23.6716 26.6716 23.6716 27.5 24.5L33.0502 30.0502C35.7839 32.7839 40.2161 32.7839 42.9497 30.0503L48.5 24.5C49.3284 23.6716 50.6716 23.6716 51.5 24.5C52.3284 25.3284 52.3284 26.6716 51.5 27.5L45.9498 33.0502C43.2161 35.7839 43.2161 40.2161 45.9497 42.9497L51.5 48.5C52.3284 49.3284 52.3284 50.6716 51.5 51.5C50.6716 52.3284 49.3284 52.3284 48.5 51.5L42.9498 45.9498C40.2161 43.2161 35.7839 43.2161 33.0503 45.9497L27.5 51.5Z" fill="#EC1414"/>
</svg>
